<svg shape-rendering="geometricPrecision" xmlns="http://www.w3.org/2000/svg" width="248" height="250" viewBox="0 0 992 1000" version="1.1">
	<path d="M 350 4.453 C 344.775 5.125, 339.060 6.423, 337.300 7.337 C 335.539 8.252, 333.360 9, 332.457 9 C 331.554 9, 329.671 9.900, 328.273 11 C 326.874 12.100, 324.913 13, 323.915 13 C 322.916 13, 321.740 13.564, 321.300 14.253 C 320.860 14.942, 318.590 16.801, 316.256 18.385 C 312.332 21.047, 306.974 26.523, 302.767 32.172 C 301.813 33.453, 300.187 35.625, 299.154 37 C 298.121 38.375, 296.935 40.625, 296.519 42 C 296.104 43.375, 295.219 45.175, 294.553 46 C 291.680 49.561, 288.774 59.821, 288.260 68.219 C 287.877 74.471, 287.268 77.353, 286.105 78.405 C 284.751 79.630, 277.982 79.923, 244.992 80.186 L 205.500 80.500 201.500 82.952 C 194.904 86.995, 186.250 96.400, 183.334 102.695 C 180.724 108.330, 180.628 109.189, 180.073 132 C 179.758 144.925, 179.755 163.600, 180.068 173.500 C 180.588 190.015, 180.829 191.830, 182.980 195.500 C 186.173 200.947, 191.678 206.618, 196.537 209.468 C 206.371 215.234, 199.351 215, 362.789 215 C 509.253 215, 512.939 214.954, 519.145 213.028 C 530.194 209.601, 537.685 201.610, 542.141 188.500 C 543.212 185.347, 543.433 176.880, 543.184 148.500 C 542.845 109.922, 542.610 107.921, 537.303 98.426 C 534.798 93.944, 527.463 86.857, 521.705 83.355 C 516.426 80.145, 506.272 78.855, 488.963 79.196 C 465.357 79.660, 438.668 79.076, 437.061 78.059 C 436.269 77.558, 435.312 74.752, 434.933 71.824 C 433.764 62.783, 431.851 54.683, 429.883 50.434 C 428.847 48.198, 428 45.873, 428 45.268 C 428 43.426, 418.200 29.388, 413.715 24.804 C 408.398 19.370, 400.609 13, 399.282 13 C 398.725 13, 397.173 12.137, 395.832 11.082 C 394.491 10.027, 391.618 8.844, 389.447 8.452 C 387.276 8.060, 384.970 7.320, 384.322 6.807 C 383.026 5.782, 365.988 2.978, 362 3.133 C 360.625 3.187, 355.225 3.781, 350 4.453 M 359.698 18.635 C 359.563 18.770, 355.863 19.332, 351.476 19.883 C 347.089 20.435, 341.250 21.882, 338.500 23.098 C 327.593 27.925, 316.003 39.015, 310.634 49.763 C 309.058 52.918, 307.095 56.850, 306.273 58.500 C 304.524 62.008, 303.123 76.443, 303.772 84.267 C 304.185 89.249, 303.982 89.936, 301.372 92.356 L 298.520 95 258.010 95.044 C 235.730 95.068, 215.631 95.449, 213.346 95.892 C 208.407 96.848, 202.863 101.168, 198.891 107.156 L 196.009 111.500 196.004 149.612 L 196 187.725 199.077 191.612 C 200.770 193.751, 203.696 196.299, 205.580 197.275 C 208.818 198.953, 217.268 199.049, 359.610 199.013 C 463.947 198.987, 511.530 198.643, 514.500 197.896 C 519.744 196.575, 524.241 192.008, 525.834 186.384 C 526.615 183.627, 527 171.389, 527 149.315 C 527 111.134, 526.569 108.311, 519.736 101.746 C 517.486 99.584, 514.487 97.294, 513.072 96.658 C 511.275 95.849, 497.703 95.448, 468 95.328 C 444.625 95.233, 424.723 95.121, 423.773 95.078 C 420.423 94.927, 418.640 90.380, 418.843 82.505 C 419.069 73.769, 416.398 57.140, 414.413 54.921 C 413.636 54.053, 413 52.678, 413 51.866 C 413 51.053, 411.875 48.864, 410.500 47 C 409.125 45.136, 408 43.207, 408 42.713 C 408 41.375, 395.889 29.657, 393 28.200 C 391.625 27.506, 389.375 26.318, 388 25.560 C 381.693 22.082, 377.855 20.880, 369.222 19.679 C 364.119 18.970, 359.834 18.500, 359.698 18.635 M 357 60.921 C 348.195 62.282, 341.764 68.663, 340.059 77.729 C 338.110 88.093, 342.856 97.132, 352.585 101.582 C 358.832 104.439, 363.529 104.640, 368.716 102.273 C 381.756 96.321, 387.779 82.867, 381.770 73.118 C 378.099 67.162, 370.885 61.009, 367.547 60.986 C 366.421 60.979, 364.600 60.805, 363.500 60.599 C 362.400 60.394, 359.475 60.539, 357 60.921 M 356.863 76.651 C 354.415 79.434, 353.749 82.658, 355.094 85.212 C 356.736 88.329, 357.914 88.969, 362 88.969 C 366.817 88.969, 368.071 87.918, 368.652 83.394 C 369.302 78.337, 367.516 76.013, 362.459 75.335 C 359.395 74.924, 358.118 75.224, 356.863 76.651 M 42.141 130.997 C 39.743 132.099, 37 133, 36.046 133 C 35.091 133, 33.495 133.900, 32.500 135 C 31.505 136.100, 29.862 137, 28.850 137 C 27.838 137, 23.288 140.713, 18.740 145.250 C 10.733 153.237, 5.999 160.585, 4.550 167.275 C 4.220 168.802, 3.061 170.939, 1.975 172.025 C 0.015 173.985, 0 177.008, 0 564 C 0 900.550, 0.195 954, 1.422 954 C 2.205 954, 3.375 955.688, 4.024 957.750 C 5.523 962.520, 9.248 970.239, 11.085 972.383 C 20.195 983.014, 28.056 989.590, 35.786 993.046 C 47.387 998.232, 32.397 998.002, 356.338 997.974 C 535.052 997.959, 661.363 997.569, 667 997.015 C 681.027 995.638, 691.846 990.842, 700.730 982.064 C 709.718 973.184, 714.020 966.216, 718.034 954.038 C 719.996 948.087, 720.138 945.851, 719.832 925.699 C 719.502 903.957, 719.485 903.809, 717.085 901.867 C 715.651 900.706, 714.026 900.191, 713.085 900.597 C 712.213 900.973, 710.379 901.331, 709.010 901.391 C 705.591 901.541, 705.264 903.682, 705.096 927 C 704.973 944.104, 704.713 947.036, 702.978 950.859 C 701.890 953.257, 701 955.685, 701 956.256 C 701 957.693, 694.743 966.965, 691.725 970 C 686.337 975.418, 678.896 979.615, 671.058 981.658 C 666.260 982.908, 623.847 983.092, 361 983.005 C 116.407 982.923, 55.320 982.649, 50.500 981.613 C 34.453 978.162, 23.915 967.978, 18.546 950.730 L 15.984 942.500 16.242 560 L 16.500 177.500 20.884 168.691 C 26.416 157.574, 33.603 150.796, 43.735 147.139 C 50.425 144.725, 51.003 144.691, 96.046 144.099 C 137.351 143.556, 141.844 143.335, 144.296 141.727 C 145.783 140.752, 147 139.267, 147 138.427 C 147 136.024, 144.252 131.329, 142.287 130.375 C 141.304 129.898, 119.350 129.392, 93.500 129.251 C 48.305 129.005, 46.333 129.072, 42.141 130.997 M 581.966 129.922 C 580.022 130.303, 577.885 130.953, 577.216 131.366 C 575.377 132.503, 575.743 138.458, 577.765 140.287 C 581.251 143.442, 588.254 143.951, 628.556 143.976 L 668.612 144 676.381 146.832 C 682.379 149.019, 685.457 150.899, 689.886 155.082 C 695.195 160.097, 697.835 164.114, 702.647 174.500 C 704.418 178.323, 704.523 185.223, 705.016 330.500 C 705.300 414.100, 705.637 482.613, 705.766 482.750 C 706.423 483.451, 716.707 482.839, 718 482.021 C 719.321 481.187, 719.532 463.038, 719.764 330.287 C 720.005 192.463, 719.885 179.027, 718.374 174 C 715.675 165.018, 711.865 156.793, 708.184 152 C 704.032 146.593, 693.944 137.021, 692.385 137.009 C 691.772 137.004, 690.126 136.100, 688.727 135 C 687.329 133.900, 685.527 133, 684.723 133 C 683.918 133, 680.443 132.100, 677 131 C 671.117 129.121, 668.166 129.007, 628.120 129.115 C 604.679 129.178, 583.910 129.542, 581.966 129.922 M 583.664 184.983 C 575.555 185.800, 573.191 186.882, 574.585 189.138 C 575.031 189.859, 575.419 191.578, 575.448 192.956 C 575.542 197.491, 579.158 198.251, 602.946 198.738 C 614.801 198.980, 626.083 199.578, 628.018 200.066 C 630.079 200.585, 633.349 202.799, 635.909 205.407 C 644.108 213.762, 643.524 202.889, 643.816 352.500 C 643.989 441.120, 644.422 486.584, 645.115 488.750 C 646.271 492.363, 647.140 492.741, 649.035 490.458 C 649.923 489.388, 650.634 489.234, 651.358 489.958 C 653.308 491.908, 655.099 491.007, 656.738 487.250 C 658.230 483.832, 658.355 471.822, 658.156 351.500 C 658.009 262.482, 657.588 217.709, 656.865 214 C 655.664 207.846, 650.133 197.946, 645.530 193.713 C 643.864 192.180, 640.025 189.486, 637 187.726 L 631.500 184.525 611.500 184.360 C 600.500 184.269, 587.974 184.549, 583.664 184.983 M 88.266 187.642 C 80.168 191.472, 72.591 199.022, 68.493 207.342 L 64.968 214.500 65.234 560.500 L 65.500 906.500 67.972 912.990 C 69.857 917.941, 71.920 920.957, 76.671 925.708 C 80.097 929.134, 84.160 932.247, 85.700 932.627 C 87.240 933.006, 89.605 934.033, 90.956 934.908 C 93.187 936.354, 118.104 936.500, 362.456 936.500 L 631.500 936.500 635.485 934.250 C 637.677 933.012, 639.881 932, 640.382 932 C 642.182 932, 650.052 924.785, 653.126 920.317 C 655.697 916.580, 656.252 914.809, 656.213 910.469 C 656.157 904.162, 654.561 900.571, 652.214 901.471 C 651.176 901.870, 649.965 901.279, 648.885 899.848 C 647.476 897.980, 646.930 897.813, 645.664 898.864 C 644.826 899.559, 643.234 902.811, 642.127 906.089 C 639.465 913.972, 632.659 920.583, 626.033 921.721 C 620.007 922.756, 107.103 922.730, 99.877 921.694 C 95.318 921.040, 93.373 920.109, 89.591 916.766 C 87.026 914.499, 83.818 910.438, 82.463 907.740 L 80 902.836 80.010 560.668 L 80.020 218.500 82.358 213.500 C 83.645 210.750, 86.780 206.588, 89.326 204.250 C 91.872 201.912, 94.078 199.943, 94.228 199.873 C 94.377 199.803, 103.950 199.427, 115.500 199.038 C 133.820 198.420, 137.106 198.058, 141.250 196.200 C 145.602 194.249, 146 193.779, 146 190.583 C 146 187.403, 145.668 187.002, 142.250 186.053 C 140.118 185.460, 128.793 185.045, 116 185.089 C 94.217 185.164, 93.333 185.246, 88.266 187.642 M 249.300 328.648 C 247.210 331.204, 243.087 336.041, 240.138 339.398 C 237.190 342.754, 233.257 347.750, 231.399 350.500 C 229.542 353.250, 225.946 357.750, 223.409 360.500 C 220.872 363.250, 217.271 367.750, 215.406 370.500 C 213.541 373.250, 209.750 377.975, 206.982 381 C 204.214 384.025, 200.498 388.853, 198.725 391.730 C 195.598 396.800, 193.147 398.137, 190.464 396.235 C 189.894 395.831, 186.681 392.125, 183.323 388 C 179.965 383.875, 173.177 376.563, 168.238 371.750 C 160.918 364.618, 158.693 363, 156.201 363 C 152.392 363, 149 366.956, 149 371.398 C 149 374.035, 150.844 376.434, 160.750 386.680 C 167.213 393.365, 176.019 402.696, 180.319 407.417 C 188.056 415.910, 188.189 416, 192.924 416 C 197.421 416, 198.020 415.672, 202.855 410.560 C 205.685 407.568, 208 404.666, 208 404.111 C 208 403.557, 209.172 401.842, 210.604 400.302 C 217.199 393.206, 223.137 386.150, 225.700 382.366 C 227.240 380.092, 230.840 375.592, 233.700 372.366 C 236.560 369.140, 240.170 364.598, 241.722 362.273 C 243.274 359.949, 246.146 356.349, 248.104 354.273 C 250.062 352.198, 252.966 348.475, 254.556 346 C 256.147 343.525, 258.922 339.654, 260.724 337.397 C 262.526 335.140, 264 332.368, 264 331.236 C 264 328.606, 258.572 324, 255.473 324 C 253.861 324, 251.881 325.490, 249.300 328.648 M 324.196 364.298 C 322.438 366.111, 321.014 368.249, 321.032 369.048 C 321.049 369.846, 322.152 371.738, 323.484 373.250 L 325.904 376 441.895 376 L 557.887 376 559.443 373.777 C 561.914 370.250, 561.434 365.487, 558.365 363.073 C 555.734 361.003, 555.549 361, 441.561 361 L 327.392 361 324.196 364.298 M 249.306 497.794 C 246.999 500.382, 243.688 504.075, 241.947 506 C 240.206 507.925, 237.691 511.202, 236.357 513.283 C 235.024 515.364, 232.347 518.739, 230.408 520.783 C 228.469 522.827, 225.546 526.300, 223.912 528.500 C 219.135 534.934, 214.845 540.406, 209.500 546.884 C 206.750 550.217, 202.264 555.882, 199.531 559.472 C 196.798 563.062, 193.914 566, 193.122 566 C 192.331 566, 184.340 558.575, 175.366 549.500 C 157.670 531.605, 156.293 530.798, 151.545 535.545 C 149.119 537.972, 147.897 544, 149.832 544 C 150.289 544, 152.070 546.138, 153.790 548.750 C 155.510 551.362, 163.573 560.293, 171.708 568.595 C 192.383 589.693, 194.326 590.124, 205.765 576.152 C 217.090 562.320, 224.461 552.942, 227.005 549.128 C 228.383 547.063, 231.609 543.151, 234.174 540.436 C 239.172 535.145, 241.380 532.450, 246.344 525.575 C 248.080 523.172, 252.762 517.447, 256.750 512.853 C 265.403 502.883, 266.019 500.111, 260.553 495.750 C 258.658 494.238, 256.295 493.020, 255.303 493.044 C 254.312 493.069, 251.613 495.206, 249.306 497.794 M 682.500 520.485 C 666.797 521.954, 654.228 525.043, 637.500 531.545 C 628.557 535.021, 610.032 545.052, 607.973 547.533 C 607.303 548.340, 606.287 549, 605.715 549 C 604.083 549, 590.307 560.654, 581.500 569.485 C 564.473 586.560, 559.552 592.866, 552.865 606.186 C 551.848 608.214, 550.561 610.153, 550.007 610.495 C 549.453 610.838, 549 611.931, 549 612.924 C 549 613.918, 548.100 615.874, 547 617.273 C 545.900 618.671, 545 620.426, 545 621.173 C 545 621.919, 544.100 624.209, 543 626.261 C 541.900 628.314, 541 630.789, 541 631.761 C 541 632.734, 540.100 635.209, 539 637.261 C 537.900 639.314, 537 642.288, 537 643.871 C 537 645.453, 536.272 648.718, 535.381 651.124 C 533.831 655.315, 532.248 664.639, 529.969 683 C 528.907 691.553, 529.908 708.319, 532.028 717.500 C 532.536 719.700, 532.982 723.075, 533.019 725 C 533.057 726.925, 533.760 730.300, 534.581 732.500 C 535.402 734.700, 536.470 738.525, 536.954 741 C 537.936 746.020, 540.347 753.217, 543.318 760 C 544.403 762.475, 545.860 765.850, 546.558 767.500 C 551.574 779.366, 558.222 790.971, 563.126 796.422 C 563.882 797.262, 565.400 799.127, 566.500 800.566 C 574.884 811.534, 585.753 822.376, 596.218 830.208 C 597.473 831.147, 599.857 833.010, 601.515 834.349 C 606.137 838.080, 613.468 842.357, 625 848.053 C 638.132 854.539, 640.303 855.489, 646.500 857.461 C 666.201 863.733, 679.774 865.958, 698.500 865.983 C 723.545 866.018, 746.293 861.854, 765 853.811 C 778.459 848.024, 786.748 844.003, 790.890 841.252 C 796.533 837.503, 798.116 838.123, 808.197 848.033 L 817.386 857.066 815.995 863.283 C 812.906 877.083, 815.994 888.765, 825.257 898.325 C 827.041 900.166, 836.375 909.931, 846 920.025 C 892.581 968.877, 906.380 982.982, 909.793 985.234 C 922.863 993.858, 926.919 995.269, 939 995.398 C 949.755 995.513, 955.061 993.947, 963.500 988.167 C 970.520 983.359, 972.639 981.273, 976.335 975.530 C 981.450 967.583, 983.500 959.965, 983.500 948.903 C 983.500 943.276, 983.033 938.725, 982.372 937.903 C 981.752 937.131, 980.914 935.375, 980.509 934 C 978.382 926.765, 969.830 917.512, 900.857 847.815 C 890.761 837.613, 881.150 828.376, 879.500 827.290 C 875.588 824.713, 864.064 822.834, 859.755 824.070 C 853.493 825.866, 852.459 825.350, 842.554 815.477 C 837.299 810.239, 833 805.680, 833 805.345 C 833 804.361, 837.115 797.815, 840.394 793.586 C 843.686 789.339, 849.386 780.292, 851.789 775.500 C 852.616 773.850, 853.823 771.825, 854.470 771 C 857.910 766.617, 865.003 747.530, 869.165 731.454 C 871.329 723.095, 871.484 720.571, 871.492 693.500 C 871.499 669.326, 871.223 663.585, 869.839 659 C 868.925 655.975, 867.859 651.475, 867.470 649 C 867.082 646.525, 866.206 643.375, 865.525 642 C 864.843 640.625, 864.011 638.054, 863.675 636.287 C 863.340 634.521, 859.399 625.521, 854.918 616.287 C 848.907 603.902, 844.588 596.598, 838.444 588.433 C 829.962 577.161, 810.859 557.725, 807.084 556.527 C 805.938 556.163, 805 555.490, 805 555.031 C 805 554.573, 803.538 553.257, 801.750 552.107 C 799.962 550.958, 795.800 548.240, 792.500 546.068 C 789.200 543.896, 781.775 539.797, 776 536.959 C 770.225 534.121, 764.375 531.236, 763 530.549 C 760.679 529.390, 754.109 527.533, 738.050 523.500 C 732.240 522.041, 720.360 520.777, 702 519.663 C 698.425 519.446, 689.650 519.816, 682.500 520.485 M 324.535 524.104 C 322.591 525.811, 321 527.755, 321 528.423 C 321 529.092, 322.278 531.071, 323.839 532.820 L 326.678 536 432.652 536 L 538.626 536 541.313 533.195 C 542.791 531.653, 544 529.540, 544 528.500 C 544 527.460, 542.791 525.347, 541.313 523.805 L 538.626 521 433.348 521 L 328.070 521 324.535 524.104 M 683 535.998 C 677.775 536.451, 671.531 537.537, 669.124 538.411 C 666.718 539.285, 663.561 540, 662.109 540 C 660.658 540, 657.791 540.900, 655.739 542 C 653.686 543.100, 651.343 544, 650.530 544 C 649.718 544, 646.904 544.954, 644.277 546.119 C 635.320 550.093, 630.502 552.296, 628.500 553.332 C 627.400 553.902, 625.150 555.038, 623.500 555.856 C 621.850 556.675, 618.654 558.842, 616.397 560.672 C 614.140 562.503, 611.774 564, 611.139 564 C 610.503 564, 603.744 570.188, 596.118 577.750 C 584.400 589.371, 578.524 596.357, 572.500 605.829 C 571.950 606.693, 570.095 609.474, 568.379 612.007 C 566.662 614.540, 564.913 617.713, 564.491 619.056 C 564.070 620.400, 562.887 622.573, 561.862 623.885 C 560.838 625.197, 560 627.019, 560 627.935 C 560 628.851, 559.560 630.040, 559.022 630.578 C 558.484 631.116, 557.107 634.243, 555.962 637.528 C 553.881 643.497, 553.478 644.812, 549.997 657 C 546.755 668.353, 545.477 696.739, 547.364 715.500 C 548.492 726.725, 553.003 742.853, 557.992 753.500 C 566.565 771.796, 565.674 770.148, 573.826 782.783 C 578.704 790.342, 597.219 810.317, 605.603 817.065 C 608.718 819.572, 620.326 827.299, 625 829.978 C 631.293 833.584, 647.051 841, 648.422 841 C 649.261 841, 651.871 841.858, 654.223 842.907 C 670.774 850.286, 712.607 852.427, 734 846.991 C 738.125 845.942, 743.075 844.783, 745 844.415 C 746.925 844.046, 749.388 843.127, 750.473 842.372 C 751.557 841.618, 753.308 841, 754.363 841 C 755.418 841, 758.130 840.151, 760.390 839.114 C 762.651 838.076, 765.625 836.717, 767 836.094 C 769.424 834.995, 771.645 833.711, 781.711 827.587 C 787.108 824.304, 788.146 823.549, 799.977 814.298 C 804.640 810.652, 810.647 805.381, 813.327 802.585 C 819.270 796.383, 833 778.156, 833 776.467 C 833 775.795, 833.701 774.663, 834.558 773.952 C 836.269 772.531, 837.157 770.634, 843.577 754.665 C 852.406 732.704, 857.542 706.888, 856.740 688.500 C 855.606 662.478, 846.502 632.605, 832.869 610.164 C 830.741 606.661, 829 603.589, 829 603.337 C 829 602.538, 812.789 582.614, 809.911 579.876 C 805.171 575.367, 787.668 561.446, 784 559.267 C 780.656 557.280, 764.824 549.321, 758.500 546.446 C 753.499 544.173, 743.848 541.003, 737.500 539.550 C 734.200 538.795, 730.361 537.735, 728.970 537.196 C 725.411 535.818, 694.393 535.010, 683 535.998 M 695.744 579.528 C 691.304 582.545, 690.195 585.842, 692.458 589.296 C 693.733 591.241, 695.216 591.906, 699.293 592.361 C 702.157 592.680, 706.834 592.929, 709.686 592.913 C 712.538 592.897, 717.232 593.585, 720.117 594.442 C 723.003 595.299, 726.245 596, 727.322 596 C 729.331 596, 732.409 597.293, 744.336 603.146 C 755.914 608.828, 756.810 609.388, 762.937 614.781 C 774.901 625.312, 786.598 642.103, 793.100 658.082 C 797.039 667.759, 799.993 683.308, 799.997 694.376 C 800.003 710.615, 795.574 730.389, 789.555 741 C 788.151 743.475, 786.439 746.625, 785.751 748 C 783.895 751.709, 776.811 760.811, 771.325 766.535 C 764.947 773.191, 757.750 778.944, 751 782.783 C 740.220 788.914, 737.620 793.416, 742.314 797.826 C 744.765 800.128, 749.862 800.738, 751.655 798.945 C 752.236 798.364, 754.118 797.127, 755.838 796.195 C 765.906 790.739, 770.584 787.254, 778.584 779.250 C 792.907 764.920, 805.083 745.096, 809.779 728.462 C 813.569 715.037, 814.185 711.403, 814.693 699.500 C 815.093 690.126, 814.748 684.765, 813.115 675 C 810.906 661.793, 808.890 655.093, 803.844 644.188 C 792.683 620.067, 767.222 595.650, 744.631 587.400 C 742.359 586.570, 738.025 584.992, 735 583.892 C 729.566 581.918, 705.733 577, 701.599 577 C 700.425 577, 697.790 578.138, 695.744 579.528 M 250.597 667.250 C 246.444 672.480, 243.284 676.199, 238.915 681 C 236.662 683.475, 234.202 686.681, 233.448 688.125 C 232.694 689.569, 230.515 692.494, 228.605 694.625 C 226.695 696.756, 223.309 700.525, 221.080 703 C 218.852 705.475, 217.022 708.063, 217.014 708.750 C 217.006 709.438, 216.213 710.794, 215.250 711.764 C 211.665 715.378, 201 728.708, 200.989 729.587 C 200.972 731.034, 194.437 737, 192.869 737 C 192.089 737, 188.643 733.701, 185.210 729.669 C 181.778 725.637, 174.762 718.212, 169.619 713.169 C 161.296 705.007, 159.870 704, 156.635 704 C 152.100 704, 149 706.866, 149 711.057 C 149 714.346, 150.509 716.056, 177.269 743.097 C 189.293 755.248, 190.265 756, 193.939 756 C 197.423 756, 198.383 755.391, 202.920 750.300 C 205.714 747.166, 208 744.041, 208 743.357 C 208 742.673, 208.799 741.525, 209.774 740.807 C 211.491 739.543, 222.468 726.176, 224.500 722.876 C 225.050 721.983, 228.762 717.483, 232.750 712.876 C 236.737 708.269, 240 703.963, 240 703.307 C 240 702.650, 240.815 701.525, 241.812 700.807 C 244.160 699.113, 255.995 684.631, 256.017 683.424 C 256.026 682.916, 257.826 680.733, 260.017 678.574 C 263.262 675.376, 264 673.950, 264 670.881 C 264 666.428, 261.306 664, 256.366 664 C 253.965 664, 252.541 664.802, 250.597 667.250 M 326.011 688.752 C 321.472 691.026, 319.896 695.123, 322.468 697.964 C 323.475 699.078, 325.920 700.439, 327.900 700.989 C 330.129 701.608, 356.177 701.991, 396.282 701.994 C 466.858 702, 467.216 701.974, 468.573 696.566 C 469.639 692.317, 468.318 689.307, 464.857 688.100 C 462.685 687.343, 441.096 687, 395.601 687.002 C 334.669 687.003, 329.227 687.140, 326.011 688.752 M 816.682 821.741 C 813.451 824.359, 811 827.148, 811 828.209 C 811 829.234, 814.974 834.504, 819.831 839.919 C 824.687 845.335, 829.408 851.340, 830.321 853.265 C 831.621 856.003, 831.929 859.234, 831.741 868.132 C 831.543 877.490, 831.817 880.081, 833.293 882.784 C 834.279 884.590, 846.437 897.640, 860.310 911.784 C 884.838 936.792, 908.090 960.843, 916.773 970.189 C 922.541 976.397, 930.836 980.359, 938 980.328 C 945.080 980.297, 951.262 977.441, 958.430 970.890 C 963.094 966.627, 964.294 964.788, 965.987 959.306 C 967.094 955.722, 968 951.271, 968 949.415 C 968 945.202, 965.455 938.672, 961.871 933.690 C 959.328 930.155, 927.322 896.933, 887.873 856.881 L 871.245 840 860.103 840 L 848.960 840 838.258 829.911 C 832.372 824.362, 826.388 819.218, 824.960 818.479 C 822.518 817.217, 822.025 817.411, 816.682 821.741" stroke="none" fill="#3f454b" fill-rule="evenodd"/>
</svg>