<svg shape-rendering="geometricPrecision" xmlns="http://www.w3.org/2000/svg" width="290" height="256" viewBox="0 0 1160 1024" version="1.1">
	<path d="M 361 7.161 C 347.691 11.361, 339.636 16.316, 331.262 25.455 C 324.502 32.833, 317.823 45.509, 315.958 54.500 C 315.274 57.800, 314.627 64.454, 314.521 69.286 C 314.415 74.118, 313.879 78.521, 313.331 79.069 C 312.762 79.638, 302.499 80.311, 289.429 80.637 C 268.038 81.170, 266.226 81.361, 262.012 83.529 C 256.222 86.507, 251.838 90.609, 248.033 96.610 L 245 101.392 245.010 140.446 C 245.019 179.318, 245.030 179.523, 247.367 184.541 C 249.903 189.988, 254.124 194.105, 259.871 196.736 C 263.185 198.254, 273.392 198.401, 377.500 198.428 C 504.077 198.462, 497.518 198.803, 505.511 191.776 C 513.471 184.779, 513.456 184.856, 513.835 147 C 514.201 110.382, 513.445 101.370, 509.488 95.168 C 506.702 90.801, 500.952 85.019, 499.385 85.008 C 498.772 85.003, 497.043 84.035, 495.544 82.856 C 492.920 80.792, 491.954 80.718, 469.794 80.883 C 453.691 81.002, 446.353 80.708, 445.385 79.904 C 444.365 79.058, 443.998 75.955, 443.994 68.128 C 443.990 60.975, 443.530 56.623, 442.588 54.817 C 441.818 53.342, 440.865 50.642, 440.469 48.817 C 439.702 45.282, 436.222 38.231, 434.403 36.527 C 433.800 35.962, 432.307 33.823, 431.086 31.773 C 428.632 27.654, 417.357 17, 415.452 17 C 414.788 17, 413.657 16.292, 412.939 15.427 C 411.229 13.366, 404.295 9.699, 400.500 8.848 C 398.850 8.479, 395.700 7.481, 393.500 6.632 C 387.342 4.255, 369.277 4.549, 361 7.161 M 890.789 17.058 C 889.849 17.607, 888.724 19.505, 888.289 21.278 C 887.855 23.050, 887.725 49.475, 888 80 L 888.500 135.500 873.406 150.500 C 865.104 158.750, 850.265 173.150, 840.431 182.500 C 830.597 191.850, 816.914 204.929, 810.025 211.564 C 803.136 218.199, 793.900 226.927, 789.500 230.959 C 785.100 234.991, 777.788 242.052, 773.250 246.650 L 765 255.011 765 295.446 C 765 325.025, 764.689 336.074, 763.841 336.598 C 763.203 336.992, 747.566 337.375, 729.091 337.449 C 709.148 337.528, 694.281 337.999, 692.500 338.607 C 690.367 339.336, 689.412 340.374, 689.195 342.199 C 688.943 344.318, 689.466 344.969, 692.195 345.931 C 700.677 348.922, 732.598 349.636, 757.202 347.386 C 763.651 346.796, 763.926 346.862, 764.462 349.137 C 764.768 350.436, 765.127 401.765, 765.259 463.200 C 765.447 550.210, 765.773 575.173, 766.734 576.135 C 767.413 576.813, 768.763 577.449, 769.734 577.547 C 770.705 577.646, 772.126 577.900, 772.891 578.113 C 773.657 578.326, 775.161 577.036, 776.235 575.247 C 778.148 572.059, 778.189 568.891, 778.260 417.402 C 778.322 286.037, 778.544 262.599, 779.738 261.405 C 781.393 259.750, 795.719 259.533, 904.500 259.513 C 967.631 259.501, 976.641 259.305, 985.796 257.742 C 996.041 255.993, 996.117 255.995, 1001.086 258.132 C 1003.833 259.314, 1006.466 261.005, 1006.937 261.890 C 1007.932 263.758, 1008.637 390.255, 1008.195 487.500 C 1007.872 558.567, 1008.731 585.414, 1011.459 589.578 C 1014.780 594.647, 1018.003 591.484, 1019.922 581.272 C 1020.767 576.773, 1021.121 543.921, 1021.196 462.872 C 1021.297 354.496, 1021.365 350.635, 1023.181 348.819 C 1024.684 347.316, 1026.006 347.049, 1029.780 347.489 C 1036.485 348.271, 1084.207 349.990, 1085.032 349.480 C 1085.409 349.247, 1097.143 349.015, 1111.106 348.965 L 1136.494 348.874 1138.743 351.488 L 1140.992 354.103 1140.815 479.613 C 1140.656 592.532, 1140.481 605.199, 1139.069 605.880 C 1138.206 606.297, 1103.525 606.539, 1062 606.419 C 989.766 606.209, 967.069 606.822, 962.817 609.098 C 959.570 610.836, 960.911 614.279, 965.500 615.988 C 968.905 617.257, 982.508 617.526, 1057 617.803 C 1119.426 618.035, 1145.588 617.808, 1148.295 617.010 C 1150.931 616.234, 1152.399 615.081, 1153.100 613.236 C 1153.760 611.500, 1154.130 565.532, 1154.168 480.540 C 1154.232 336.116, 1154.723 346.476, 1147.512 340.145 L 1143.930 337 1093.215 337.008 C 1065.182 337.013, 1038.505 337.474, 1033.567 338.040 C 1026.541 338.845, 1024.371 338.789, 1023.398 337.782 C 1022.469 336.818, 1022.107 326.958, 1021.940 298 C 1021.818 276.825, 1021.290 257.925, 1020.767 256 C 1020.198 253.910, 1017.938 250.753, 1015.157 248.164 C 1012.596 245.780, 1006.869 240.380, 1002.431 236.164 C 997.993 231.949, 988.543 223.102, 981.431 216.505 C 974.319 209.908, 964.420 200.683, 959.434 196.005 C 954.448 191.327, 946.987 184.350, 942.855 180.500 C 938.723 176.650, 927.390 165.881, 917.671 156.569 L 900 139.637 900 120.010 C 900 104.641, 900.308 99.961, 901.419 98.441 C 902.601 96.824, 904.325 96.443, 911.765 96.156 C 919.297 95.866, 921.538 96.168, 926.097 98.084 C 929.068 99.333, 932.625 101.094, 934 101.996 C 939.179 105.396, 944.380 106.001, 968.116 105.965 C 993.095 105.927, 994.061 105.758, 997.985 100.755 C 1000.254 97.862, 1000.070 95.133, 997.461 92.968 C 996.658 92.301, 996 91.115, 996 90.333 C 996 89.551, 993.975 85.954, 991.500 82.340 C 985.590 73.708, 985.576 68.798, 991.444 62.465 C 992.872 60.925, 995.438 56.824, 997.147 53.352 C 1000.108 47.338, 1000.178 46.921, 998.628 44.555 C 995.557 39.867, 993.813 39.529, 970 39 C 949.962 38.555, 947.098 38.281, 943.831 36.500 C 929.035 28.434, 931.107 29.041, 917.812 28.879 C 903.331 28.702, 901.328 27.906, 900.375 21.947 C 899.516 16.572, 895.306 14.425, 890.789 17.058 M 371.500 20.630 C 363.100 22.860, 356.279 25.338, 352.597 27.496 C 347.959 30.214, 336 42.230, 336 44.172 C 336 44.816, 335.316 46.099, 334.479 47.023 C 332.531 49.176, 330.010 63.450, 329.979 72.500 C 329.944 83.157, 325.962 89.882, 317.500 93.578 C 316.400 94.058, 305.208 94.687, 292.628 94.976 L 269.756 95.500 264.889 101 L 260.022 106.500 260.011 141.350 L 260 176.200 263.400 179.600 L 266.800 183 378.079 183 C 460.087 183, 490.203 182.694, 492.571 181.838 C 498.719 179.615, 499 177.834, 499 141.088 C 499 105.064, 498.861 104.073, 493.019 98.500 L 489.874 95.500 466.187 95 C 439.242 94.431, 438.352 94.194, 432.393 85.988 C 429.370 81.826, 429.128 80.910, 429.066 73.386 C 428.975 62.217, 427.566 55.734, 423.483 47.697 C 417.771 36.454, 408.673 28.522, 394.683 22.588 C 390.843 20.959, 375.227 19.640, 371.500 20.630 M 900.607 41.582 C 900.273 42.452, 900 52.320, 900 63.510 C 900 86.762, 900.203 87.438, 906.722 85.925 C 908.800 85.442, 914.100 85.039, 918.500 85.028 C 925.936 85.010, 927.064 85.300, 934.500 89.138 L 942.500 93.268 961.500 94.125 C 971.950 94.597, 981.063 94.776, 981.750 94.523 C 984.759 93.416, 982.761 88.315, 976.286 80.570 C 971.530 74.882, 971.802 71.124, 977.520 63.506 C 986.298 51.814, 985.436 51, 964.277 51 C 952.903 51, 948.007 50.612, 945.346 49.500 C 943.371 48.675, 940.933 48, 939.928 48 C 938.922 48, 937.740 47.414, 937.300 46.697 C 936.860 45.981, 934.146 44.181, 931.268 42.697 C 926.412 40.193, 925.146 40, 913.625 40 C 903.230 40, 901.115 40.257, 900.607 41.582 M 371.500 60.199 C 366.357 61.983, 360.395 68.614, 358.491 74.668 C 356.865 79.837, 356.867 80.363, 358.525 84.705 C 361.913 93.576, 370.667 100, 379.367 100 C 384.385 100, 389.273 97.793, 393.623 93.564 C 397.019 90.262, 400 83.836, 400 79.818 C 400 75.923, 396.379 68.097, 392.829 64.318 C 388.664 59.884, 378.219 57.867, 371.500 60.199 M 375.235 72.037 C 372.484 73.142, 370.664 77.509, 371.516 80.961 C 372.391 84.506, 376.931 89, 379.636 89 C 382.635 89, 387.999 83.202, 387.962 80 C 387.930 77.211, 385.521 73.884, 382.274 72.147 C 379.776 70.810, 378.345 70.787, 375.235 72.037 M 130.878 100.490 C 122.025 102.428, 111.661 108.577, 104.648 116.054 C 98.206 122.921, 93 131.938, 93 136.228 C 93 137.618, 92.357 140.295, 91.571 142.177 C 90.394 144.993, 90.115 155.750, 89.996 203.049 C 89.915 234.647, 89.884 269.847, 89.925 281.272 L 90 302.044 96.196 306.048 C 101.885 309.725, 102.477 309.907, 103.446 308.276 C 104.150 307.090, 104.669 279.604, 105.010 225.500 C 105.560 137.982, 105.228 143.315, 110.817 132.358 C 113.541 127.019, 120.313 120.973, 127.513 117.450 C 134.465 114.049, 132.138 114.225, 184.500 113.131 C 209.374 112.612, 223.230 111.947, 224.613 111.207 C 227.185 109.831, 229.692 104.292, 228.351 102.951 C 227.835 102.435, 222.933 101.338, 217.457 100.512 C 204.674 98.586, 139.657 98.569, 130.878 100.490 M 540.231 100.428 C 535.684 101.093, 531.570 102.056, 531.089 102.569 C 530.608 103.081, 530.438 104.935, 530.712 106.689 C 531.093 109.133, 531.943 110.156, 534.354 111.069 C 536.466 111.870, 551.303 112.531, 579.500 113.081 C 617.706 113.826, 622.023 114.082, 627.289 115.910 C 637.946 119.609, 643.020 124.327, 649.967 137 L 652.434 141.500 652.688 361.761 C 652.861 512.057, 653.272 582.640, 653.983 583.968 C 655.146 586.142, 660.686 587.552, 663.970 586.509 C 665.150 586.135, 666.543 584.703, 667.066 583.327 C 667.656 581.773, 668.019 497.898, 668.023 361.891 C 668.028 176.651, 667.814 142.536, 666.635 140.228 C 665.868 138.728, 664.903 135.925, 664.490 134 C 664.077 132.075, 662.898 129.427, 661.870 128.115 C 660.841 126.803, 660 125.279, 660 124.727 C 660 122.996, 651.696 113.458, 647.093 109.903 C 641.271 105.407, 634.641 102.162, 628.500 100.803 C 621.186 99.185, 550.775 98.885, 540.231 100.428 M 882.932 161.276 C 878.770 165.249, 872.393 171.200, 868.761 174.500 C 865.129 177.800, 848.824 193.524, 832.529 209.442 C 816.233 225.359, 801.404 239.400, 799.576 240.642 C 796.618 242.652, 795 244.840, 795 246.832 C 795 247.199, 834.712 247.346, 883.250 247.158 C 948.811 246.904, 973.887 247.130, 980.785 248.039 C 985.893 248.712, 990.351 248.983, 990.693 248.641 C 992.330 247.004, 992.011 246.676, 942.930 199.500 C 935.491 192.350, 924.294 181.775, 918.048 176 C 911.802 170.225, 903.910 162.912, 900.511 159.750 C 897.111 156.588, 893.468 154.012, 892.415 154.026 C 891.362 154.041, 887.095 157.303, 882.932 161.276 M 171.500 168.968 C 170.400 169.431, 167.475 171.896, 165 174.447 L 160.500 179.085 160.500 512.439 L 160.500 845.792 164.413 849.483 C 166.566 851.513, 169.407 853.585, 170.728 854.087 C 173.920 855.300, 452.447 855.257, 460.853 854.041 C 466.711 853.194, 471 850.976, 471 848.794 C 471 848.301, 469.313 847.160, 467.250 846.259 C 464.025 844.849, 456.284 844.503, 412 843.784 C 359.951 842.940, 185.570 843.565, 178.975 844.620 C 173.241 845.537, 172.604 843.950, 173.904 831.993 C 174.675 824.906, 175 727.130, 175 502.083 C 175 247.431, 175.255 182.033, 176.250 181.207 C 176.956 180.621, 183.373 180.107, 191 180.025 C 213.457 179.783, 222.559 177.291, 219.389 172.250 C 218.558 170.927, 215.872 170.218, 208.394 169.345 C 196.780 167.989, 174.372 167.760, 171.500 168.968 M 558.500 169.012 C 547.409 169.934, 543 171.197, 543 173.452 C 543 174.278, 544.021 175.623, 545.268 176.440 C 547.926 178.182, 562.109 179.974, 573.500 180.007 C 577.900 180.020, 582.081 180.399, 582.791 180.850 C 583.839 181.515, 584.084 221.181, 584.091 391.584 C 584.095 507.038, 584.456 603.642, 584.892 606.260 C 585.329 608.877, 585.951 611.285, 586.276 611.609 C 586.600 611.933, 588.724 611.885, 590.995 611.501 C 594.148 610.968, 595.350 610.210, 596.079 608.292 C 596.675 606.724, 597.025 525.721, 597.009 392.774 C 596.982 159.819, 597.406 176.548, 591.388 170.895 C 589.136 168.779, 587.880 168.528, 578.694 168.363 C 573.087 168.263, 564 168.555, 558.500 169.012 M 369.500 261.701 C 363.683 263.066, 353.932 266.301, 353.493 267.011 C 353.216 267.460, 351.079 268.754, 348.744 269.888 C 343.315 272.523, 336.110 279.445, 331.757 286.205 C 325.560 295.831, 325 296.910, 325 299.230 C 325 300.495, 324.100 303.209, 323 305.261 C 321.283 308.465, 321 310.903, 321 322.500 C 321 334.097, 321.283 336.535, 323 339.739 C 324.100 341.791, 325 344.243, 325 345.188 C 325 346.132, 326.823 350.414, 329.051 354.702 C 332.105 360.580, 335.091 364.395, 341.178 370.199 C 349.411 378.048, 350.665 380.992, 345.781 381.007 C 344.527 381.010, 342.150 381.907, 340.500 383 C 338.850 384.093, 336.768 384.990, 335.872 384.993 C 334.977 384.997, 333.721 385.631, 333.081 386.402 C 332.442 387.173, 330.699 388.109, 329.209 388.483 C 327.719 388.857, 325.695 390.026, 324.711 391.081 C 323.727 392.137, 322.247 393, 321.423 393 C 319.518 393, 301 411.442, 301 413.339 C 301 414.118, 300.318 415.321, 299.485 416.013 C 297.568 417.604, 293.002 426.620, 292.993 428.832 C 292.990 429.749, 292.093 431.850, 291 433.500 C 289.907 435.150, 288.990 438.075, 288.963 440 C 288.935 441.925, 288.264 445.300, 287.471 447.500 C 286.493 450.215, 286.025 455.770, 286.015 464.790 C 286.001 476.907, 286.193 478.343, 288.188 481.040 L 290.376 484 378.966 484 C 458.885 484, 467.781 483.842, 469.860 482.386 C 472.135 480.792, 472.161 480.552, 471.832 464.037 C 471.614 453.060, 471.092 446.812, 470.314 445.876 C 469.662 445.092, 468.808 441.986, 468.416 438.975 C 468.023 435.964, 466.869 431.932, 465.851 430.015 C 464.833 428.098, 464 425.762, 464 424.824 C 464 423.886, 463.586 422.862, 463.081 422.550 C 462.576 422.238, 460.564 419.174, 458.611 415.741 C 453.591 406.917, 440.617 394.600, 434.196 392.562 C 433.090 392.211, 431.949 391.308, 431.660 390.556 C 431.371 389.804, 429.786 388.892, 428.137 388.530 C 426.488 388.168, 424.626 387.254, 424 386.500 C 423.374 385.746, 421.574 384.846, 420 384.500 C 418.426 384.154, 416.602 383.225, 415.947 382.436 C 415.291 381.646, 414.248 380.993, 413.628 380.985 C 413.007 380.976, 411.866 380.568, 411.090 380.077 C 409.918 379.335, 409.894 378.670, 410.948 376.126 C 411.645 374.443, 412.960 372.830, 413.871 372.541 C 415.739 371.948, 423.597 364.548, 426.233 360.899 C 427.187 359.580, 428.874 357.304, 429.983 355.842 C 431.093 354.381, 432 352.670, 432 352.040 C 432 351.411, 432.860 349.232, 433.911 347.198 C 436.211 342.748, 438.155 333.848, 438.758 325 C 439.681 311.467, 432.565 291.340, 423.470 281.760 C 417.679 275.660, 409.472 269, 407.746 269 C 406.934 269, 405.126 268.100, 403.727 267 C 402.329 265.900, 400.581 264.994, 399.842 264.987 C 399.104 264.980, 395.647 264.080, 392.161 262.987 C 386.178 261.112, 374.771 260.464, 369.500 261.701 M 368 275.933 C 364.924 276.656, 359.461 279.243, 352.293 283.371 C 349.443 285.012, 344.987 289.477, 343.390 292.293 C 336.892 303.746, 334.065 313.314, 334.021 324 C 333.954 340.216, 341.514 354.584, 354.970 363.819 C 368.100 372.830, 382.293 375.307, 391 370.109 C 391.825 369.617, 393.625 368.692, 395 368.055 C 406.366 362.785, 414.179 355.606, 418.461 346.500 C 420.012 343.200, 421.981 339.157, 422.836 337.516 C 423.872 335.525, 424.534 330.756, 424.824 323.177 C 425.202 313.285, 424.993 311.221, 423.196 307.161 C 422.061 304.597, 420.864 301.242, 420.536 299.705 C 419.861 296.542, 403.918 280, 401.545 280 C 400.729 280, 398.188 279.024, 395.898 277.830 C 392.579 276.100, 389.686 275.604, 381.618 275.384 C 376.053 275.233, 369.925 275.480, 368 275.933 M 60.296 328.432 C 53.353 330.114, 44.752 336.666, 39.688 344.128 C 35.802 349.855, 33.764 363.784, 36.150 368.316 C 37.600 371.071, 38.938 371.965, 41.639 371.985 C 45.972 372.016, 48.065 368.977, 49.036 361.244 C 50.164 352.257, 51.725 349.178, 57.593 344.370 C 61.675 341.025, 62.977 340.533, 68.698 340.168 C 73.966 339.833, 75.676 340.118, 77.839 341.695 C 79.303 342.762, 81.249 343.913, 82.165 344.253 C 83.678 344.816, 85.102 346.865, 87.893 352.500 C 88.438 353.600, 89.168 357.092, 89.515 360.260 C 90.319 367.593, 93.650 372, 98.389 372 C 100.155 372, 102.140 371.460, 102.800 370.800 C 103.560 370.040, 103.992 366.283, 103.978 360.550 C 103.952 349.827, 102.219 345.146, 95.762 338.353 C 90.373 332.683, 86.316 330.169, 79.725 328.415 C 73.418 326.736, 67.270 326.741, 60.296 328.432 M 879.878 335.474 C 874.336 337.513, 863.829 345.255, 860.699 349.606 C 859.158 351.748, 856.800 355.750, 855.459 358.500 C 853.371 362.780, 853.019 364.940, 853.014 373.500 C 853.010 381.575, 853.442 384.559, 855.256 389 C 856.491 392.025, 858.820 396.223, 860.430 398.330 C 864.929 404.212, 874.429 411.029, 880.313 412.595 C 889.584 415.064, 901.530 414.085, 910 410.164 C 915.672 407.539, 925.616 396.916, 928.560 390.337 C 934.089 377.981, 932.697 363.655, 924.770 351.345 C 921.420 346.141, 911.853 338.701, 905.080 336.031 C 899.004 333.637, 885.672 333.342, 879.878 335.474 M 883.890 347.703 C 879.969 348.308, 870.107 357.612, 867.748 362.931 C 865.276 368.505, 864.876 378.990, 866.945 384 C 869.037 389.066, 873.752 394.647, 878.718 397.937 C 884.340 401.660, 894.629 403.596, 899.846 401.912 C 908.212 399.211, 915.941 391.155, 918.451 382.520 C 920.378 375.892, 920.374 375.401, 918.338 367.293 C 916.889 361.527, 915.932 359.932, 910.903 354.903 C 907.178 351.178, 903.776 348.754, 901.315 348.071 C 897.630 347.047, 889.276 346.871, 883.890 347.703 M 35.718 382.388 C 29.948 384.521, 25.616 387.875, 23.194 392.085 L 21 395.896 21.022 575.198 C 21.044 751.676, 21.075 754.569, 23.022 758.859 C 24.110 761.257, 25 763.775, 25 764.454 C 25 765.134, 25.900 766.505, 27 767.500 C 28.100 768.495, 29 770.169, 29 771.220 C 29 772.270, 29.934 775.463, 31.076 778.315 C 33.058 783.262, 34.094 785.623, 38.891 796.110 C 40.051 798.645, 41 801.070, 41 801.500 C 41 801.930, 41.949 804.355, 43.109 806.890 C 47.044 815.494, 48.750 819.492, 49.983 823 C 53.169 832.068, 54.259 834.615, 55.577 836.079 C 56.360 836.947, 57 838.565, 57 839.674 C 57 840.783, 57.900 842.505, 59 843.500 C 60.100 844.495, 61 846.164, 61 847.208 C 61 848.253, 62.238 850.658, 63.750 852.553 C 67.010 856.639, 70.615 857.080, 73.515 853.750 C 76.539 850.276, 80 845.022, 80 843.904 C 80 843.350, 80.845 841.232, 81.878 839.198 C 84.372 834.288, 87.299 827.729, 90 821 C 92.203 815.512, 93.906 811.602, 97.891 802.890 C 99.051 800.355, 100 797.705, 100 797 C 100 796.295, 100.956 793.645, 102.125 791.110 C 107.398 779.671, 108 778.182, 108 776.589 C 108 775.658, 108.886 773.232, 109.970 771.198 C 111.053 769.164, 113.093 764.350, 114.503 760.500 C 115.913 756.650, 117.610 752.600, 118.275 751.500 C 119.210 749.952, 119.404 709.755, 119.137 573.506 C 118.806 404.546, 118.718 397.367, 116.940 393.882 C 114.786 389.660, 110.276 385.613, 105.129 383.283 C 102.070 381.898, 96.630 381.589, 70.500 381.315 C 45.787 381.056, 38.733 381.273, 35.718 382.388 M 361.036 386.457 C 360.331 387.306, 359.151 388, 358.413 388 C 357.674 388, 356.589 388.900, 356 390 C 355.411 391.100, 354.158 392.003, 353.215 392.007 C 352.272 392.010, 350.150 392.907, 348.500 394 C 346.850 395.093, 344.773 395.990, 343.885 395.993 C 342.997 395.997, 341.126 396.900, 339.727 398 C 338.329 399.100, 336.486 400, 335.631 400 C 334.777 400, 333.273 400.805, 332.289 401.788 C 331.305 402.771, 328.700 404.870, 326.500 406.453 C 321.617 409.965, 318.364 413.245, 314.554 418.500 C 312.959 420.700, 310.832 423.305, 309.827 424.289 C 308.822 425.273, 308 426.777, 308 427.631 C 308 428.486, 307.100 430.329, 306 431.727 C 304.900 433.126, 304 435.502, 304 437.008 C 304 438.514, 303.131 441.715, 302.069 444.123 C 300.681 447.272, 300.067 451.239, 299.883 458.264 C 299.736 463.884, 300.058 468.458, 300.641 469.041 C 301.986 470.386, 456.924 470.476, 458.268 469.132 C 458.871 468.529, 458.813 465.154, 458.110 459.931 C 457.500 455.394, 456.997 449.616, 456.993 447.091 C 456.989 444.193, 456.254 441.394, 455 439.500 C 453.907 437.850, 453.010 435.350, 453.007 433.944 C 453.003 432.539, 451.875 429.864, 450.500 428 C 449.125 426.136, 448 423.995, 448 423.242 C 448 421.388, 430.578 404, 428.720 404 C 427.909 404, 426.722 403.369, 426.082 402.599 C 425.442 401.828, 422.350 399.989, 419.209 398.512 C 416.069 397.035, 411.836 394.965, 409.802 393.913 C 407.768 392.861, 405.270 392, 404.252 392 C 403.233 392, 401.941 391.541, 401.379 390.979 C 400.818 390.418, 397.915 389.032, 394.929 387.900 C 390.752 386.315, 386.366 385.734, 375.908 385.377 C 364.488 384.988, 362.112 385.161, 361.036 386.457 M 50.348 395.715 C 41.896 395.955, 37.863 396.460, 37.106 397.372 C 36.332 398.305, 35.928 449.050, 35.710 572.592 C 35.541 668.242, 35.041 747.702, 34.600 749.172 C 33.889 751.535, 34.181 752.042, 37.128 753.566 C 40.162 755.135, 43.210 755.225, 71.336 754.572 C 88.318 754.178, 102.768 753.643, 103.447 753.382 C 104.419 753.009, 104.694 715.608, 104.745 577.273 C 104.813 389.268, 105.045 398.479, 100.190 396.468 C 98.241 395.661, 68.212 395.207, 50.348 395.715 M 1075.617 406.087 L 1072.964 408.174 1073.232 431.336 L 1073.500 454.497 1077 456.369 C 1080.259 458.112, 1080.759 458.133, 1084.250 456.672 L 1088 455.102 1088 431.108 C 1088 407.446, 1087.969 407.092, 1085.777 405.557 C 1082.705 403.405, 1078.765 403.610, 1075.617 406.087 M 69.043 428.273 C 66.362 429.629, 65.254 432.443, 65.100 438.281 C 65.039 440.584, 65.520 442.262, 66.331 442.574 C 68.244 443.308, 77.309 441.111, 78.209 439.695 C 78.627 439.038, 78.976 436.565, 78.985 434.199 C 78.999 430.231, 78.732 429.786, 75.532 428.449 C 71.412 426.727, 72.062 426.745, 69.043 428.273 M 865.500 488.468 C 862.200 489.036, 858.150 490.368, 856.500 491.428 C 852.208 494.187, 846.155 500.809, 843.650 505.486 C 841.529 509.447, 841.500 510.194, 841.500 561.831 C 841.500 613.008, 841.544 614.194, 843.500 615.624 C 847.129 618.278, 850.010 618.434, 852.341 616.105 C 854.484 613.963, 854.504 613.559, 855 562.223 C 855.559 504.434, 855.092 507.981, 862.851 502.603 L 866.608 500 890.539 500 C 914.181 500, 914.532 500.031, 919.490 502.539 C 928.929 507.315, 928.429 504.101, 929 563.646 C 929.479 613.555, 929.584 615.885, 931.449 617.945 C 934.146 620.924, 938.673 620.347, 941.401 616.676 C 943.478 613.882, 943.497 613.323, 943.194 563.176 C 942.855 507.018, 942.916 507.578, 936.211 499.188 C 931.747 493.602, 926.051 490.068, 918.781 488.372 C 911.878 486.761, 875.038 486.828, 865.500 488.468 M 1075.174 499.314 C 1073.074 501.550, 1073 502.401, 1073 524.246 L 1073 546.864 1075.904 548.932 C 1079.702 551.636, 1083.134 551.551, 1085.826 548.686 C 1087.929 546.447, 1088 545.612, 1088 523.257 C 1088 497.336, 1087.912 497, 1081.103 497 C 1078.472 497, 1076.698 497.692, 1075.174 499.314 M 239.015 559.848 C 237.648 560.252, 235.883 561.736, 235.092 563.145 C 233.783 565.477, 233.855 565.988, 235.895 568.853 L 238.136 572 378.894 572 L 519.651 572 521.826 569.686 C 524.540 566.796, 524.599 563.853, 521.991 561.492 C 520.072 559.755, 513.722 559.661, 380.741 559.393 C 304.158 559.240, 240.382 559.444, 239.015 559.848 M 678 615.110 C 671.125 616.161, 662.800 617.916, 659.500 619.011 C 656.200 620.105, 652.634 621, 651.575 621 C 649.020 621, 635.051 625.851, 632.538 627.611 C 631.447 628.375, 629.585 629, 628.400 629 C 627.215 629, 625.721 629.631, 625.081 630.402 C 624.442 631.173, 622.699 632.109, 621.209 632.483 C 619.719 632.857, 617.695 634.026, 616.711 635.081 C 615.727 636.137, 614.294 637, 613.527 637 C 612.760 637, 605.963 641.155, 598.423 646.234 C 583.807 656.078, 566.569 671.807, 557.033 684 C 554.237 687.575, 550.499 692.242, 548.725 694.371 C 546.951 696.501, 544.562 699.651, 543.416 701.371 C 534.590 714.623, 532.963 717.299, 532.420 719.465 C 532.081 720.814, 531.173 722.442, 530.402 723.081 C 529.631 723.721, 528.997 724.752, 528.994 725.372 C 528.990 725.993, 528.277 727.850, 527.408 729.500 C 525.005 734.066, 521.996 741.933, 520.525 747.500 C 519.799 750.250, 518.745 753.850, 518.183 755.500 C 517.229 758.305, 515.824 763.750, 513.926 772 C 510.139 788.465, 508.105 816.167, 509.851 827.500 C 513.298 849.871, 513.538 851.241, 516.135 863.250 C 517.211 868.222, 518.160 871.105, 523.213 884.734 C 525.052 889.695, 528.536 897.112, 536.258 912.497 C 537.225 914.424, 538.432 916, 538.940 916 C 539.449 916, 540.183 917.013, 540.572 918.250 C 541.683 921.785, 563.106 947.897, 571.194 955.575 C 595.133 978.299, 623.069 993.735, 660 1004.644 C 672.266 1008.268, 683.837 1009.473, 706.500 1009.487 C 735.729 1009.506, 749.370 1007.060, 779 996.488 C 781.475 995.605, 788.450 992.443, 794.500 989.463 C 813.562 980.072, 828.337 969.453, 844.695 953.387 C 875.685 922.949, 892.223 892.362, 901.136 849 C 903.266 838.639, 903.500 834.924, 903.500 811.500 C 903.500 781.981, 902.613 775.279, 895.911 754.144 C 891.553 740.398, 890.883 738.756, 883.818 724.500 C 872.758 702.183, 864.638 690.970, 845.500 671.589 C 835.986 661.954, 828.562 655.510, 822 651.190 C 818.975 649.198, 816.214 647.160, 815.864 646.660 C 814.285 644.403, 790.580 631.716, 779.500 627.198 C 772.880 624.499, 765.425 622.070, 760.500 621.009 C 758.300 620.535, 755.150 619.628, 753.500 618.994 C 751.850 618.359, 746.675 617.213, 742 616.447 C 737.325 615.681, 731.475 614.611, 729 614.071 C 721.300 612.388, 691.884 612.987, 678 615.110 M 698.500 629.051 C 680.540 630.063, 662.392 633.469, 650.481 638.064 C 647.720 639.129, 645.050 640, 644.546 640 C 643.343 640, 636.849 642.968, 624.153 649.322 C 610.224 656.293, 608.663 657.150, 607.500 658.470 C 606.950 659.094, 604.508 660.931, 602.073 662.552 C 595.058 667.223, 591.327 670.552, 577.937 684.080 C 565.920 696.222, 555.955 709.306, 549.733 721.117 C 548.395 723.656, 546.558 726.794, 545.650 728.089 C 544.743 729.385, 544 731.097, 544 731.894 C 544 732.691, 543.409 734.053, 542.686 734.921 C 541.964 735.790, 540.108 739.875, 538.563 744 C 537.018 748.125, 534.909 753.608, 533.877 756.185 C 532.844 758.762, 532 761.814, 532 762.968 C 532 764.121, 531.273 766.737, 530.384 768.782 C 529.495 770.827, 528.418 775.875, 527.991 780 C 527.563 784.125, 526.446 793.125, 525.507 800 C 524.510 807.302, 524.046 814.913, 524.390 818.304 C 526.422 838.286, 531.001 860.092, 536.155 874.330 C 537.781 878.823, 539.544 883.914, 540.073 885.642 C 540.602 887.370, 541.702 889.337, 542.517 890.014 C 543.333 890.691, 544 892.029, 544 892.988 C 544 893.946, 544.900 895.874, 546 897.273 C 547.100 898.671, 548.001 900.194, 548.001 900.658 C 548.002 901.121, 549.749 904.016, 551.883 907.090 C 554.018 910.165, 556.072 913.653, 556.449 914.840 C 556.826 916.028, 557.479 917, 557.899 917 C 558.319 917, 560.119 919.247, 561.899 921.993 C 568.234 931.770, 582.352 946.097, 597 957.612 C 604.262 963.321, 612.457 969, 613.434 969 C 613.697 969, 615.404 970.013, 617.229 971.250 C 622.370 974.736, 643.934 984.969, 646.277 985.034 C 646.950 985.053, 649.300 985.937, 651.500 987 C 653.700 988.063, 656.175 988.941, 657 988.953 C 657.825 988.964, 662.100 989.848, 666.500 990.916 C 676.630 993.377, 701.910 997.045, 708.566 997.019 C 711.353 997.009, 716.078 996.594, 719.066 996.098 C 722.055 995.602, 728.550 994.661, 733.500 994.005 C 738.450 993.350, 745.495 991.956, 749.155 990.907 C 752.816 989.858, 756.416 988.985, 757.155 988.966 C 757.895 988.947, 760.300 988.063, 762.500 987 C 764.700 985.937, 767.280 985.053, 768.233 985.034 C 769.988 985, 784.342 978.147, 793.500 972.971 C 796.250 971.417, 799.660 969.550, 801.078 968.823 C 809.074 964.720, 821.374 954.581, 836.220 939.857 C 845.449 930.703, 853 922.735, 853 922.151 C 853 920.914, 856.968 914.889, 859.356 912.501 C 860.260 911.597, 861 910.362, 861 909.757 C 861 909.152, 861.641 907.947, 862.424 907.079 C 864.122 905.196, 876.474 880.579, 877.517 877 C 877.917 875.625, 878.576 874.050, 878.980 873.500 C 880.441 871.513, 884.925 854.247, 886.940 842.851 C 888.560 833.691, 889 826.957, 889 811.344 C 889 800.201, 888.534 789.954, 887.939 787.993 C 887.355 786.072, 886.251 780.900, 885.485 776.500 C 883.887 767.322, 881.036 756.866, 878.037 749.190 C 873.121 736.606, 863.606 718.488, 856.490 708.161 C 842.507 687.869, 820.968 667.513, 800.500 655.247 C 799.400 654.587, 793.775 651.743, 788 648.927 C 782.225 646.110, 776.661 643.363, 775.635 642.823 C 772.743 641.298, 760.104 637.087, 754 635.614 C 750.975 634.884, 746.475 633.795, 744 633.195 C 739.709 632.154, 720.419 629.379, 713 628.735 C 711.075 628.568, 704.550 628.710, 698.500 629.051 M 238.173 637.132 C 237.233 637.479, 235.864 638.886, 235.130 640.257 C 233.624 643.072, 234.740 646.278, 237.773 647.848 C 238.753 648.356, 275.478 648.690, 322.700 648.621 C 387.732 648.526, 406.172 648.227, 407.148 647.252 C 408.602 645.798, 408.645 639.245, 407.211 637.811 C 406.122 636.722, 241.075 636.058, 238.173 637.132 M 239.189 714.132 C 236.333 715.201, 233.822 718.715, 234.170 721.158 C 234.882 726.168, 232.113 726.053, 350.690 726.013 C 421.738 725.989, 462.810 725.615, 465.143 724.971 C 471.788 723.136, 472.855 718.987, 467.487 715.853 C 464.678 714.212, 457.168 714.078, 352.679 713.799 C 291.188 713.634, 240.117 713.784, 239.189 714.132 M 796.427 745.381 C 762.022 781.757, 764.020 779.637, 742.549 802.583 C 734.272 811.428, 725.025 821.398, 722 824.738 C 718.975 828.078, 709.645 837.833, 701.267 846.415 C 692.889 854.997, 685.300 863.139, 684.402 864.509 C 683.504 865.879, 681.935 867, 680.915 867 C 679.822 867, 666.223 854.280, 647.780 836.007 C 626.204 814.629, 615.830 805.012, 614.339 805.007 C 611.727 804.999, 607 810.324, 607 813.276 C 607 815.526, 612.137 820.912, 653.238 861.750 C 683.086 891.408, 679.459 890.644, 698.373 871.250 C 705.748 863.688, 713.958 854.800, 716.616 851.500 C 719.274 848.200, 726.635 840.262, 732.974 833.859 C 739.313 827.457, 746.482 820.032, 748.904 817.359 C 751.327 814.687, 760.102 805.374, 768.404 796.664 C 776.707 787.955, 783.912 780.080, 784.416 779.164 C 784.920 778.249, 790.177 772.550, 796.097 766.500 C 810.292 751.994, 813 748.476, 813 744.537 C 813 740.913, 809.554 737, 806.363 737 C 805.142 737, 801.246 740.287, 796.427 745.381 M 44.546 769.343 C 42.783 770.632, 42.815 770.916, 45.355 776.464 C 46.810 779.642, 48 782.914, 48 783.735 C 48 784.556, 48.827 786.864, 49.838 788.864 C 50.848 790.864, 52.599 794.525, 53.729 797 C 54.859 799.475, 56.732 803.574, 57.891 806.110 C 59.051 808.645, 60.003 811.345, 60.006 812.110 C 60.010 812.874, 60.726 814.850, 61.598 816.500 C 62.470 818.150, 64.043 822.259, 65.095 825.630 C 68.207 835.609, 71.910 836.766, 73.765 828.339 C 75.189 821.866, 77.830 814.860, 79.577 812.921 C 80.360 812.053, 81 810.651, 81 809.806 C 81 808.961, 81.900 807.126, 83 805.727 C 84.100 804.329, 85 802.450, 85 801.552 C 85 800.655, 85.900 798.156, 87 796 C 88.100 793.844, 89 791.493, 89 790.775 C 89 790.057, 89.900 787.791, 91 785.739 C 92.100 783.686, 93 781.313, 93 780.464 C 93 779.615, 93.927 777.104, 95.059 774.884 C 98.538 768.065, 98.309 768, 70.569 768 C 51.906 768, 45.963 768.307, 44.546 769.343 M 100.487 846.919 C 91.098 865.172, 90.392 867.930, 92.020 880 C 93.231 888.980, 95.715 895.813, 100.251 902.648 C 102.642 906.251, 104.718 908.311, 111.966 914.276 C 115.828 917.454, 120.052 919.792, 126 922.041 L 132.500 924.500 306 924.500 C 401.425 924.500, 481.979 924.144, 485.009 923.708 C 491.622 922.758, 493.579 921.739, 492.403 919.862 C 491.934 919.113, 491.675 917.736, 491.829 916.803 C 492.030 915.580, 491.046 914.840, 488.304 914.153 C 483.641 912.985, 365.867 911.744, 235.469 911.489 C 159.306 911.340, 137.584 911.022, 134.469 910.008 C 120.082 905.326, 110.211 894.849, 106.666 880.500 C 105.735 876.731, 105.203 869.847, 105.235 861.988 C 105.263 855.106, 104.966 848.469, 104.575 847.238 C 103.704 844.493, 101.811 844.345, 100.487 846.919" stroke="none" fill="#3f454b" fill-rule="evenodd"/>
</svg>